# xmcd CD database file
#
# Track frame offsets:
#	150
#	16590
#	54350
#	83897
#	115627
#	142290
#	168842
#
# Disc length: 2536 seconds
#
# Revision: 0
# Processed by: cddbd v1.5.1PL2 Copyright (c) Steve Scherf et al.
# Submitted via: CDex 1.51
#
DISCID=4d09e607
DTITLE=CECILIA COLEMAN - TRIO
DYEAR=1998
DGENRE=Jazz
TTITLE0=Deahoud
TTITLE1=But Not For Me
TTITLE2=You Don't Know What Love Is
TTITLE3=In Love In Vain
TTITLE4=My Romance
TTITLE5=Old Folks
TTITLE6=Ana Maria
EXTD=YEAR: 1998
EXTT0=
EXTT1=
EXTT2=
EXTT3=
EXTT4=
EXTT5=
EXTT6=
PLAYORDER=
